<mxfile host="app.diagrams.net" agent="Mozilla/5.0 (Windows NT 10.0; Win64; x64) AppleWebKit/537.36 (KHTML, like Gecko) Chrome/135.0.0.0 Safari/537.36 Edg/135.0.0.0" version="26.2.13">
  <diagram name="第 1 页" id="-IWms8OAoOXSx69WmoF2">
    <mxGraphModel dx="824" dy="458" grid="1" gridSize="10" guides="1" tooltips="1" connect="1" arrows="1" fold="1" page="1" pageScale="1" pageWidth="827" pageHeight="1169" math="0" shadow="0">
      <root>
        <mxCell id="0" />
        <mxCell id="1" parent="0" />
        <mxCell id="rR5EofyFPW8heq7qPvs--8" style="edgeStyle=orthogonalEdgeStyle;rounded=0;orthogonalLoop=1;jettySize=auto;html=1;exitX=0.5;exitY=1;exitDx=0;exitDy=0;entryX=0.5;entryY=0;entryDx=0;entryDy=0;" edge="1" parent="1" source="rR5EofyFPW8heq7qPvs--1" target="rR5EofyFPW8heq7qPvs--2">
          <mxGeometry relative="1" as="geometry" />
        </mxCell>
        <mxCell id="rR5EofyFPW8heq7qPvs--9" value="/dev/kvm" style="edgeLabel;html=1;align=center;verticalAlign=middle;resizable=0;points=[];" vertex="1" connectable="0" parent="rR5EofyFPW8heq7qPvs--8">
          <mxGeometry x="-0.2533" y="1" relative="1" as="geometry">
            <mxPoint x="29" as="offset" />
          </mxGeometry>
        </mxCell>
        <mxCell id="rR5EofyFPW8heq7qPvs--1" value="用户空间" style="rounded=0;whiteSpace=wrap;html=1;" vertex="1" parent="1">
          <mxGeometry x="360" y="520" width="120" height="50" as="geometry" />
        </mxCell>
        <mxCell id="rR5EofyFPW8heq7qPvs--5" style="edgeStyle=orthogonalEdgeStyle;rounded=0;orthogonalLoop=1;jettySize=auto;html=1;exitX=0.75;exitY=1;exitDx=0;exitDy=0;entryX=0.75;entryY=0;entryDx=0;entryDy=0;" edge="1" parent="1" source="rR5EofyFPW8heq7qPvs--2" target="rR5EofyFPW8heq7qPvs--3">
          <mxGeometry relative="1" as="geometry" />
        </mxCell>
        <mxCell id="rR5EofyFPW8heq7qPvs--6" value="vmx_x86_ops" style="edgeLabel;html=1;align=center;verticalAlign=middle;resizable=0;points=[];" vertex="1" connectable="0" parent="rR5EofyFPW8heq7qPvs--5">
          <mxGeometry x="-0.216" y="2" relative="1" as="geometry">
            <mxPoint x="38" as="offset" />
          </mxGeometry>
        </mxCell>
        <mxCell id="rR5EofyFPW8heq7qPvs--2" value="kvm.ko" style="rounded=0;whiteSpace=wrap;html=1;" vertex="1" parent="1">
          <mxGeometry x="360" y="600" width="120" height="50" as="geometry" />
        </mxCell>
        <mxCell id="rR5EofyFPW8heq7qPvs--3" value="kvm-intel.ko" style="rounded=0;whiteSpace=wrap;html=1;" vertex="1" parent="1">
          <mxGeometry x="360" y="700" width="120" height="50" as="geometry" />
        </mxCell>
        <mxCell id="rR5EofyFPW8heq7qPvs--4" value="" style="endArrow=classic;html=1;rounded=0;exitX=0.25;exitY=0;exitDx=0;exitDy=0;entryX=0.25;entryY=1;entryDx=0;entryDy=0;" edge="1" parent="1" source="rR5EofyFPW8heq7qPvs--3" target="rR5EofyFPW8heq7qPvs--2">
          <mxGeometry width="50" height="50" relative="1" as="geometry">
            <mxPoint x="390" y="670" as="sourcePoint" />
            <mxPoint x="440" y="620" as="targetPoint" />
          </mxGeometry>
        </mxCell>
        <mxCell id="rR5EofyFPW8heq7qPvs--7" value="kvm_init&lt;div&gt;kvm_exit&lt;/div&gt;" style="edgeLabel;html=1;align=center;verticalAlign=middle;resizable=0;points=[];" vertex="1" connectable="0" parent="rR5EofyFPW8heq7qPvs--4">
          <mxGeometry x="0.104" y="1" relative="1" as="geometry">
            <mxPoint x="-29" as="offset" />
          </mxGeometry>
        </mxCell>
      </root>
    </mxGraphModel>
  </diagram>
</mxfile>
